# xmcd
#
# Track frame offsets:
#	150
#	17215
#	29320
#	43440
#
# Disc length: 804 seconds
#
# Revision: 0
# Processed by: cddbd v1.5.2PL0 Copyright (c) Steve Scherf et al.
# Submitted via: EasyCDDAExtractor 11.1.0.1
#
DISCID=30032204
DTITLE=Cari Schauer and Back in Business - promo
DYEAR=1900
DGENRE=country
TTITLE0=Ta' til Californien
TTITLE1=Country rock cafe
TTITLE2=Hver en lille ting
TTITLE3=Farmand
EXTD=
EXTT0=
EXTT1=
EXTT2=
EXTT3=
PLAYORDER=
